<svg width="55" height="55" viewBox="0 0 55 55" fill="none" xmlns="http://www.w3.org/2000/svg">
<path d="M34.375 29.2188H44.4984C44.179 31.346 43.4194 33.3832 42.2682 35.2003C41.117 37.0174 39.5994 38.5744 37.8125 39.7719L34.7359 41.8344L36.6266 44.6875L39.7031 42.625C42.2928 40.8992 44.4164 38.5609 45.8856 35.8175C47.3547 33.0741 48.124 30.0105 48.125 26.8984L48.125 15.4688C48.125 14.5571 47.7628 13.6827 47.1182 13.0381C46.4735 12.3934 45.5992 12.0312 44.6875 12.0312H34.375C33.4633 12.0312 32.589 12.3934 31.9443 13.0381C31.2997 13.6827 30.9375 14.5571 30.9375 15.4688V25.7813C30.9375 26.6929 31.2997 27.5673 31.9443 28.2119C32.589 28.8566 33.4633 29.2188 34.375 29.2188ZM10.3125 29.2188L20.4359 29.2188C20.1165 31.346 19.3569 33.3832 18.2057 35.2003C17.0545 37.0174 15.5369 38.5744 13.75 39.7719L10.6734 41.8344L12.5469 44.6875L15.6406 42.625C18.2303 40.8992 20.3539 38.5609 21.8231 35.8175C23.2922 33.0741 24.0615 30.0105 24.0625 26.8984V15.4688C24.0625 14.5571 23.7003 13.6827 23.0557 13.0381C22.411 12.3934 21.5367 12.0312 20.625 12.0312L10.3125 12.0313C9.40082 12.0313 8.52648 12.3934 7.88182 13.0381C7.23716 13.6827 6.875 14.5571 6.875 15.4688L6.875 25.7813C6.875 26.6929 7.23716 27.5673 7.88182 28.2119C8.52648 28.8566 9.40082 29.2188 10.3125 29.2188Z" fill="white"/>
</svg>
