<svg width="25" height="27" viewBox="0 0 25 27" fill="none" xmlns="http://www.w3.org/2000/svg">
<path d="M12.8934 26.0921H1.34804C0.613033 26.0921 0.0175781 25.4546 0.0175781 24.6684V1.72241C0.0175781 0.936057 0.613126 0.298828 1.34804 0.298828H22.7932C23.5279 0.298828 24.1236 0.936057 24.1236 1.72241V24.6684C24.1236 25.4547 23.5278 26.0921 22.7932 26.0921H16.6504V16.1035H19.7838L20.2529 12.2108H16.6504V9.72555C16.6504 8.59851 16.9429 7.83048 18.4533 7.83048L20.3798 7.82958V4.34789C20.0466 4.30045 18.903 4.19446 17.5725 4.19446C14.795 4.19446 12.8934 6.00856 12.8934 9.34003V12.2108H9.75194V16.1035H12.8934V26.0921Z" fill="black"/>
</svg>
