<svg width="25" height="27" viewBox="0 0 25 27" fill="none" xmlns="http://www.w3.org/2000/svg">
<path fill-rule="evenodd" clip-rule="evenodd" d="M12.4087 0.298828C9.13531 0.298828 8.72486 0.313674 7.43928 0.376437C6.15638 0.439046 5.2802 0.657079 4.51354 0.975911C3.72095 1.30544 3.04878 1.74642 2.37867 2.46338C1.70861 3.1804 1.29648 3.89961 0.988504 4.74768C0.690529 5.568 0.486759 6.50551 0.428245 7.8782C0.369588 9.25377 0.355713 9.69296 0.355713 13.1955C0.355713 16.698 0.369588 17.1372 0.428245 18.5127C0.486759 19.8854 0.690529 20.823 0.988504 21.6433C1.29648 22.4913 1.70861 23.2106 2.37867 23.9276C3.04878 24.6445 3.72095 25.0855 4.51354 25.4151C5.2802 25.7339 6.15638 25.9519 7.43928 26.0145C8.72486 26.0773 9.13531 26.0921 12.4087 26.0921C15.6821 26.0921 16.0926 26.0773 17.3782 26.0145C18.6611 25.9519 19.5372 25.7339 20.3039 25.4151C21.0965 25.0855 21.7686 24.6445 22.4388 23.9276C23.1088 23.2106 23.5209 22.4913 23.829 21.6433C24.1269 20.823 24.3307 19.8854 24.3892 18.5127C24.4478 17.1372 24.4617 16.698 24.4617 13.1955C24.4617 9.69296 24.4478 9.25377 24.3892 7.8782C24.3307 6.50551 24.1269 5.568 23.829 4.74768C23.5209 3.89961 23.1088 3.1804 22.4388 2.46338C21.7686 1.74642 21.0965 1.30544 20.3039 0.975911C19.5372 0.657079 18.6611 0.439046 17.3782 0.376437C16.0926 0.313674 15.6821 0.298828 12.4087 0.298828ZM12.4087 2.62256C15.627 2.62256 16.0082 2.63572 17.2792 2.69776C18.4543 2.7551 19.0925 2.9652 19.5172 3.14181C20.0798 3.37577 20.4813 3.65523 20.9031 4.10655C21.3249 4.55782 21.5861 4.98743 21.8047 5.58942C21.9698 6.04386 22.1661 6.72673 22.2197 7.98414C22.2777 9.34404 22.29 9.75195 22.29 13.1955C22.29 16.639 22.2777 17.0469 22.2197 18.4068C22.1661 19.6643 21.9698 20.3471 21.8047 20.8016C21.5861 21.4035 21.3249 21.8332 20.9031 22.2844C20.4813 22.7358 20.0798 23.0152 19.5172 23.2492C19.0925 23.4258 18.4543 23.6359 17.2792 23.6932C16.0084 23.7553 15.6272 23.7684 12.4087 23.7684C9.19018 23.7684 8.80905 23.7553 7.53826 23.6932C6.3631 23.6359 5.7249 23.4258 5.30019 23.2492C4.73759 23.0152 4.33608 22.7358 3.91433 22.2844C3.49258 21.8332 3.23135 21.4035 3.0127 20.8016C2.84763 20.3471 2.65128 19.6643 2.5977 18.4068C2.53971 17.0469 2.52741 16.639 2.52741 13.1955C2.52741 9.75195 2.53971 9.34404 2.5977 7.98414C2.65128 6.72673 2.84763 6.04386 3.0127 5.58942C3.23135 4.98743 3.49253 4.55782 3.91433 4.10655C4.33608 3.65523 4.73759 3.37577 5.30019 3.14181C5.7249 2.9652 6.3631 2.7551 7.53826 2.69776C8.8092 2.63572 9.19042 2.62256 12.4087 2.62256ZM6.21934 13.1956C6.21934 9.53801 8.9904 6.573 12.4087 6.573C15.827 6.573 18.5981 9.53801 18.5981 13.1956C18.5981 16.8532 15.827 19.8182 12.4087 19.8182C8.9904 19.8182 6.21934 16.8532 6.21934 13.1956ZM12.4087 17.4945C10.1898 17.4945 8.39104 15.5698 8.39104 13.1956C8.39104 10.8214 10.1898 8.89673 12.4087 8.89673C14.6276 8.89673 16.4264 10.8214 16.4264 13.1956C16.4264 15.5698 14.6276 17.4945 12.4087 17.4945ZM18.8426 7.85887C19.6414 7.85887 20.289 7.16602 20.289 6.3113C20.289 5.45657 19.6414 4.76367 18.8426 4.76367C18.0438 4.76367 17.3963 5.45657 17.3963 6.3113C17.3963 7.16602 18.0438 7.85887 18.8426 7.85887Z" fill="black"/>
</svg>
